# xmcd CD database file
#
# Track frame offsets:
#	150
#	28793
#	54562
#	72305
#	91648
#	108652
#	123035
#	138667
#	150784
#	170987
#	185300
#	213026
#	225211
#	251887
#	277586
#	302711
#
# Disc length: 4489 seconds
#
# Revision: 0
# Processed by: cddbd v1.5.2PL0 Copyright (c) Steve Scherf et al.
# Submitted via: CDex 1.84
#
DISCID=cc118710
DTITLE=Mona Kasten - feel again
DYEAR=2017
DGENRE=Jugend
TTITLE0=feel again
TTITLE1=feel again
TTITLE2=feel again
TTITLE3=feel again
TTITLE4=feel again
TTITLE5=feel again
TTITLE6=feel again
TTITLE7=feel again
TTITLE8=feel again
TTITLE9=feel again
TTITLE10=feel again
TTITLE11=feel again
TTITLE12=feel again
TTITLE13=feel again
TTITLE14=feel again
TTITLE15=feel again
EXTD=YEAR: 2017
EXTT0=
EXTT1=
EXTT2=
EXTT3=
EXTT4=
EXTT5=
EXTT6=
EXTT7=
EXTT8=
EXTT9=
EXTT10=
EXTT11=
EXTT12=
EXTT13=
EXTT14=
EXTT15=
PLAYORDER=
